# xmcd
# Copyright (C) 1995-1998 Ti Kan
#
# Track frame offsets:
#       150
#       24885
#       43814
#       67489
#       86095
#       104624
#       129597
#       145550
#       172147
#
# Disc length: 2496 seconds
#
# Revision: 0
# Processed by: cddbd v1.5.2PL0 Copyright (c) Steve Scherf et al.
# Submitted via: CD-Transfer v1.0
#
DISCID=8309be09
DTITLE=Saadi Nore Eddine - 
DYEAR=1900
DGENRE=
TTITLE0=01 Mohamed El Hadi
TTITLE1=02 Sidi Mohamed
TTITLE2=03 Hob Ennabi
TTITLE3=04 Meka Ya Zina
TTITLE4=05 Ya Ka3ba Ya Lala
TTITLE5=06 Youm El Hisab
TTITLE6=07 El Waldine Meftah El Jenna
TTITLE7=08 Chefni Dak El Meride
TTITLE8=09 Soubhane Ellah
EXTD=
EXTT0=
EXTT1=
EXTT2=
EXTT3=
EXTT4=
EXTT5=
EXTT6=
EXTT7=
EXTT8=
PLAYORDER=
